<svg width="32" height="32" viewBox="0 0 32 32" fill="none" xmlns="http://www.w3.org/2000/svg">
<path d="M13.5997 10.32H19.6898L21.3898 13.49H19.2198L18.3298 11.99H12.8098L11.8998 13.49H9.73975L14.4797 4H16.5598L13.5997 10.32Z" fill="white"/>
<path d="M15.6298 16.27C15.6982 16.2305 15.7757 16.2097 15.8547 16.2097C15.9337 16.2097 16.0114 16.2305 16.0798 16.27L19.9998 18.08C20.2542 18.196 20.5302 18.2573 20.8098 18.26H28.1598V16.71H20.8398C20.7769 16.7193 20.7128 16.7193 20.6498 16.71L16.7397 14.9C16.43 14.7625 16.0904 14.706 15.7528 14.7357C15.4152 14.7654 15.0908 14.8805 14.8098 15.07L14.1298 15.54C11.5898 14.62 9.33975 15 7.86975 16.6H3.02979V18.1H8.57983L8.7998 17.82C9.24394 17.2877 9.83119 16.8936 10.4922 16.6845C11.1532 16.4754 11.8603 16.46 12.5298 16.64L11.5298 17.34C11.2892 17.5047 11.0858 17.7179 10.9325 17.9659C10.7792 18.2139 10.6795 18.4912 10.6398 18.78C10.5995 19.068 10.6188 19.3612 10.6962 19.6416C10.7736 19.9219 10.9075 20.1834 11.0898 20.41C11.4052 20.7969 11.8476 21.0594 12.3383 21.1509C12.8289 21.2425 13.3361 21.1571 13.7698 20.91L15.8798 19.71C15.9445 19.6758 16.0167 19.658 16.0898 19.658C16.163 19.658 16.2351 19.6758 16.2998 19.71L16.9298 20.01C17.0052 20.0487 17.0684 20.1074 17.1125 20.1798C17.1567 20.2521 17.1799 20.3353 17.1798 20.42V21.8C17.1798 24.05 16.6498 25.49 15.5898 26.09C13.9098 27.09 11.0498 25.75 10.0898 25.18L9.90979 25.07H3.03979V26.57H9.49976C10.9174 27.3746 12.5021 27.8401 14.1298 27.93C14.8964 27.945 15.6541 27.7624 16.3298 27.4C16.7773 27.1445 17.1711 26.8049 17.4897 26.4H28.1598V24.9H18.2397C18.5445 23.9093 18.6897 22.8763 18.6698 21.84V20.38C18.6642 20.0168 18.5597 19.662 18.3677 19.3537C18.1756 19.0454 17.9033 18.7952 17.5798 18.63L16.9498 18.32C16.665 18.1795 16.3497 18.1114 16.0322 18.1219C15.7147 18.1323 15.4048 18.221 15.1298 18.38L13.0198 19.57C12.8959 19.6427 12.7501 19.6685 12.6088 19.6428C12.4675 19.6171 12.3401 19.5416 12.2498 19.43C12.1962 19.365 12.1562 19.2899 12.1322 19.2092C12.1082 19.1285 12.1005 19.0437 12.1097 18.96C12.1378 18.7912 12.2312 18.6403 12.3698 18.54L15.6298 16.27Z" fill="white"/>
</svg>
