<svg width="16" height="16" viewBox="0 0 16 16" fill="none" xmlns="http://www.w3.org/2000/svg">
<path d="M7.88594 6.74683C7.19047 6.74598 6.52373 6.46931 6.03196 5.97751C5.54019 5.48571 5.26354 4.81892 5.2627 4.12341C5.26347 3.42788 5.54009 2.76105 6.03188 2.26923C6.52366 1.77741 7.19045 1.50077 7.88594 1.5C8.5814 1.50085 9.24814 1.77752 9.73991 2.26932C10.2317 2.76112 10.5083 3.4279 10.5092 4.12341C10.5083 4.81892 10.2317 5.48571 9.73991 5.97751C9.24814 6.46931 8.5814 6.74598 7.88594 6.74683ZM7.88594 2.25117C7.3893 2.25179 6.91318 2.44936 6.562 2.80056C6.21083 3.15176 6.01327 3.62791 6.01265 4.12458C6.01365 4.621 6.21138 5.09677 6.56252 5.44766C6.91365 5.79854 7.38955 5.99591 7.88594 5.99653C8.38262 5.99599 8.85882 5.79845 9.21005 5.44724C9.56129 5.09604 9.7589 4.61984 9.75951 4.12312C9.75851 3.62665 9.56074 3.15083 9.20954 2.79994C8.85835 2.44905 8.38237 2.25171 7.88594 2.25117Z" fill="#3C3C3B"/>
<path d="M13.7247 14.0297H2V13.6546C2 10.4219 4.62965 7.79181 7.86235 7.79181C11.0951 7.79181 13.7247 10.4219 13.7247 13.6546V14.0297ZM2.76365 13.2794H12.9611C12.7684 10.6347 10.555 8.54181 7.86235 8.54181C5.16974 8.54181 2.95631 10.6347 2.76365 13.2794Z" fill="#3C3C3B"/>
</svg>
