<svg width="16" height="16" viewBox="0 0 16 16" fill="none" xmlns="http://www.w3.org/2000/svg">
<path d="M11.5083 9.28817C11.1588 9.28931 10.8162 9.38583 10.5175 9.56734C10.2188 9.74885 9.97531 10.0085 9.81329 10.3182L6.23834 8.43816C6.39163 8.03387 6.39163 7.58746 6.23834 7.18317L9.81329 5.30316C10.0326 5.71341 10.3945 6.02923 10.8306 6.19104C11.2668 6.35286 11.7471 6.3495 12.1809 6.18158C12.6147 6.01367 12.9722 5.69281 13.1857 5.27953C13.3993 4.86625 13.4542 4.38911 13.3402 3.9381C13.2262 3.48709 12.9511 3.09339 12.5668 2.83126C12.1825 2.56912 11.7155 2.45666 11.254 2.51509C10.7925 2.57353 10.3683 2.79882 10.0615 3.14847C9.75462 3.49812 9.58633 3.94797 9.58832 4.41317C9.59143 4.49362 9.59981 4.57378 9.61334 4.65316L9.5733 4.58316L5.85333 6.53316C5.59442 6.24267 5.25334 6.0377 4.87531 5.94542C4.49727 5.85315 4.10009 5.87792 3.73645 6.01645C3.37281 6.15499 3.05986 6.40075 2.83905 6.72116C2.61824 7.04158 2.5 7.42152 2.5 7.81066C2.5 8.19979 2.61824 8.57975 2.83905 8.90017C3.05986 9.22058 3.37281 9.46634 3.73645 9.60488C4.10009 9.74341 4.49727 9.76818 4.87531 9.67591C5.25334 9.58363 5.59442 9.37866 5.85333 9.08817L9.5733 11.0382L9.61334 10.9682C9.59981 11.0475 9.59143 11.1277 9.58832 11.2082C9.58832 11.5879 9.70095 11.9591 9.91193 12.2749C10.1229 12.5906 10.4227 12.8367 10.7736 12.982C11.1244 13.1273 11.5104 13.1653 11.8829 13.0913C12.2553 13.0172 12.5974 12.8343 12.866 12.5658C13.1345 12.2973 13.3173 11.9552 13.3914 11.5827C13.4655 11.2103 13.4275 10.8242 13.2822 10.4734C13.1368 10.1226 12.8908 9.82272 12.575 9.61174C12.2593 9.40077 11.888 9.28817 11.5083 9.28817V9.28817ZM11.5083 3.24816C11.7399 3.24816 11.9664 3.31691 12.1589 3.4457C12.3514 3.57448 12.5013 3.75751 12.5897 3.97159C12.6781 4.18567 12.701 4.42116 12.6555 4.64826C12.6099 4.87535 12.498 5.08381 12.3339 5.24724C12.1697 5.41067 11.9608 5.52171 11.7335 5.56629C11.5062 5.61087 11.2708 5.58698 11.0571 5.49765C10.8434 5.40833 10.661 5.25759 10.5331 5.06453C10.4051 4.87147 10.3373 4.64478 10.3383 4.41317C10.3396 4.10373 10.4635 3.80742 10.6827 3.58908C10.902 3.37075 11.1989 3.24815 11.5083 3.24816ZM4.43335 8.97817C4.20173 8.97817 3.97529 8.90941 3.78278 8.78063C3.59026 8.65184 3.44033 8.46881 3.35193 8.25473C3.26352 8.04065 3.24064 7.80516 3.28619 7.57807C3.33175 7.35097 3.44366 7.14251 3.60779 6.97908C3.77192 6.81566 3.98084 6.70462 4.20813 6.66004C4.43542 6.61546 4.67082 6.63935 4.88452 6.72867C5.09822 6.81799 5.28061 6.96873 5.40857 7.16179C5.53653 7.35485 5.60432 7.58154 5.60333 7.81316C5.60333 7.96657 5.57302 8.11848 5.51416 8.26015C5.4553 8.40182 5.36903 8.53048 5.26031 8.63872C5.1516 8.74697 5.0226 8.83267 4.88068 8.89092C4.73875 8.94917 4.58676 8.97883 4.43335 8.97817V8.97817ZM11.5083 12.3732C11.2765 12.3741 11.0496 12.3063 10.8564 12.1781C10.6633 12.0499 10.5125 11.8672 10.4233 11.6532C10.3342 11.4392 10.3106 11.2036 10.3556 10.9761C10.4006 10.7487 10.5121 10.5398 10.676 10.3759C10.84 10.2119 11.0489 10.1004 11.2763 10.0554C11.5037 10.0104 11.7394 10.034 11.9534 10.1232C12.1674 10.2124 12.35 10.3631 12.4782 10.5563C12.6064 10.7494 12.6743 10.9763 12.6733 11.2082C12.672 11.5167 12.5488 11.8123 12.3306 12.0305C12.1124 12.2487 11.8169 12.3718 11.5083 12.3732V12.3732Z" fill="#3C3C3B"/>
</svg>
