<svg width="80" height="14" viewBox="0 0 80 14" fill="none" xmlns="http://www.w3.org/2000/svg">
<path d="M79.4736 11.0838C78.2955 12.1621 76.7688 12.6628 75.1122 12.6628C70.847 12.6628 69.0447 9.94767 69.0265 7.182C69.0109 4.40429 70.9588 1.58325 75.1096 1.58325C76.6674 1.58325 78.1446 2.12724 79.3253 3.20559L77.8793 4.49575C77.1277 3.81457 76.1082 3.49443 75.1096 3.49443C72.3372 3.49443 71.1409 5.40802 71.1617 7.182C71.1747 8.94394 72.2722 10.7829 75.1096 10.7829C76.1108 10.7829 77.2422 10.4002 77.9964 9.70215L79.4736 11.0838Z" fill="white"/>
<path d="M65.1694 12.4198V1.79517H67.3202V12.4222H65.1694V12.4198Z" fill="white"/>
<path d="M58.0385 3.61729H54.3975V1.79517C57.7108 1.79517 60.517 1.79517 63.8459 1.79517V3.61729H60.2049V12.4222H58.0411V3.61729H58.0385Z" fill="white"/>
<path d="M52.7251 12.4195H44.1323C44.1323 8.88358 44.1323 5.3284 44.1323 1.79248H52.7251V3.73495H46.2805V6.1829H52.4962V8.04834H46.2805V10.4481H52.7251V12.4195Z" fill="white"/>
<path d="M36.7367 1.79517V10.5712H42.6403V12.4222H34.5703V1.79517H36.7367Z" fill="white"/>
<path d="M30.3909 12.4368V8.14026H24.7499V12.4368H22.5835V1.80737H24.7499V6.28444H30.3909V1.80737H32.539V12.4344H30.3909V12.4368Z" fill="white"/>
<path d="M15.4491 3.61729H11.8081V1.79517C15.1214 1.79517 17.925 1.79517 21.2539 1.79517V3.61729H17.6155V12.4222H15.4491V3.61729V3.61729Z" fill="white"/>
<path d="M4.78894 8.87664H4.81755H4.78894H11.5066L13.3843 12.4198H10.9838L10.0034 10.7421H3.9073L2.90862 12.4198H0.526367L5.75641 1.79517H8.05024L4.78894 8.87664Z" fill="white"/>
</svg>
